<svg width="293" height="44" viewBox="0 0 293 44" fill="none" xmlns="http://www.w3.org/2000/svg">
<path d="M58.1059 19.8917L51.2681 23.1968C51.1417 23.2579 51.0038 23.2917 50.8635 23.296L13.2218 24.4455C13.0036 24.4522 12.7893 24.3873 12.6115 24.2608L6.55261 19.9493C5.96493 19.5311 5.9998 18.6472 6.61859 18.2766L31.3349 3.47397C31.6441 3.28879 32.029 3.28432 32.3424 3.46224L58.1644 18.1217C58.8654 18.5197 58.8316 19.5409 58.1059 19.8917Z" fill="#815839"/>
<path d="M96.113 23.269L91.7527 31.3032C91.5671 31.6496 91.3445 31.9403 91.0847 32.1753C90.825 32.3979 90.4662 32.5093 90.0085 32.5093C89.588 32.5093 89.2354 32.3918 88.9509 32.1567C88.6788 31.9217 88.45 31.6434 88.2644 31.3218L83.6628 23.4175C83.7371 25.0874 83.8051 26.6274 83.8669 28.0376C83.8917 28.6437 83.9164 29.2498 83.9412 29.856C83.9659 30.4621 83.9906 31.0249 84.0154 31.5444C84.0401 32.064 84.0587 32.5278 84.071 32.936C84.0958 33.3319 84.1143 33.6226 84.1267 33.8081C84.1391 33.9937 84.1329 34.1606 84.1082 34.3091C84.0958 34.4575 84.0525 34.5874 83.9783 34.6987C83.9041 34.7977 83.7989 34.8781 83.6628 34.9399C83.5268 34.9894 83.3412 35.0142 83.1062 35.0142H81.0652C80.8425 35.0142 80.6322 34.9461 80.4343 34.8101C80.2488 34.6616 80.156 34.3771 80.156 33.9565V10.355C80.156 10.12 80.1869 9.88493 80.2488 9.6499C80.323 9.41488 80.4405 9.20459 80.6013 9.01904C80.7745 8.82113 80.9972 8.6665 81.2693 8.55518C81.5414 8.43148 81.8754 8.36963 82.2712 8.36963H88.2458C88.7283 8.36963 89.1427 8.45622 89.489 8.62939C89.8354 8.7902 90.1322 9.06234 90.3796 9.4458L95.3708 17.3687L98.7107 10.9673C98.9086 10.5838 99.1003 10.2375 99.2859 9.92822C99.4714 9.60661 99.6879 9.33447 99.9353 9.11182C100.195 8.87679 100.51 8.69743 100.882 8.57373C101.265 8.43766 101.754 8.36963 102.347 8.36963H107.283C107.753 8.36963 108.155 8.43148 108.489 8.55518C108.835 8.67887 109.114 8.84587 109.324 9.05615C109.547 9.26644 109.707 9.51383 109.806 9.79834C109.905 10.0828 109.955 10.3921 109.955 10.7261V32.4351C109.955 32.8185 109.924 33.1711 109.862 33.4927C109.8 33.8019 109.67 34.0741 109.472 34.3091C109.287 34.5317 109.015 34.7049 108.656 34.8286C108.31 34.9523 107.852 35.0142 107.283 35.0142H98.7107C98.2035 35.0142 97.783 34.9585 97.449 34.8472C97.115 34.7358 96.849 34.575 96.6511 34.3647C96.4532 34.1545 96.311 33.8885 96.2244 33.5669C96.1501 33.2453 96.113 32.868 96.113 32.4351V23.269ZM124.094 35.6636C123.166 35.6636 122.238 35.5894 121.31 35.4409C120.383 35.2925 119.492 35.0575 118.638 34.7358C117.797 34.4142 117.012 33.9937 116.282 33.4741C115.552 32.9546 114.915 32.3175 114.371 31.563C113.839 30.8084 113.418 29.9364 113.109 28.9468C112.8 27.9448 112.645 26.8006 112.645 25.5142C112.645 24.2524 112.8 23.1268 113.109 22.1372C113.418 21.1353 113.839 20.257 114.371 19.5024C114.915 18.7479 115.552 18.1108 116.282 17.5913C117.012 17.0594 117.797 16.6326 118.638 16.311C119.492 15.9771 120.383 15.7358 121.31 15.5874C122.238 15.439 123.166 15.3647 124.094 15.3647C124.947 15.3647 125.819 15.4204 126.71 15.5317C127.613 15.6307 128.485 15.8224 129.326 16.1069C130.179 16.3791 130.977 16.7563 131.719 17.2388C132.474 17.7088 133.13 18.3149 133.686 19.0571C134.255 19.7993 134.701 20.6899 135.022 21.729C135.356 22.7557 135.523 23.9679 135.523 25.3657C135.523 26.8006 135.362 28.0562 135.041 29.1323C134.719 30.1961 134.274 31.1115 133.705 31.8784C133.148 32.633 132.499 33.2576 131.757 33.7524C131.014 34.2472 130.217 34.6369 129.363 34.9214C128.522 35.1935 127.65 35.3853 126.747 35.4966C125.844 35.6079 124.959 35.6636 124.094 35.6636ZM129.79 31.2104C130.173 31.2104 130.551 31.13 130.922 30.9692C131.305 30.7961 131.639 30.493 131.924 30.0601C132.22 29.6271 132.455 29.0334 132.629 28.2788C132.814 27.5119 132.907 26.5409 132.907 25.3657C132.907 24.2524 132.814 23.3371 132.629 22.6196C132.455 21.9022 132.22 21.3394 131.924 20.9312C131.627 20.5106 131.293 20.2199 130.922 20.0591C130.551 19.8983 130.173 19.8179 129.79 19.8179C129.493 19.8179 129.159 19.8797 128.788 20.0034C128.429 20.1271 128.089 20.3931 127.767 20.8013C127.458 21.1971 127.198 21.7723 126.988 22.5269C126.778 23.269 126.673 24.2648 126.673 25.5142C126.673 26.7635 126.759 27.7655 126.932 28.52C127.106 29.2746 127.334 29.8498 127.619 30.2456C127.903 30.6414 128.231 30.9012 128.602 31.0249C128.986 31.1486 129.382 31.2104 129.79 31.2104ZM138.232 18.5933C138.232 18.1727 138.269 17.8016 138.344 17.48C138.418 17.146 138.56 16.8739 138.77 16.6636C138.981 16.4533 139.271 16.2925 139.642 16.1812C140.013 16.0698 140.496 16.0142 141.09 16.0142H148.678C149.235 16.0142 149.711 16.0698 150.107 16.1812C150.515 16.2925 150.806 16.4842 150.979 16.7563C151.14 16.645 151.332 16.5275 151.554 16.4038C151.789 16.2677 152.043 16.144 152.315 16.0327C152.587 15.9214 152.878 15.8286 153.187 15.7544C153.497 15.6802 153.818 15.6431 154.152 15.6431C155.34 15.6431 156.261 16.0513 156.917 16.8677C157.585 17.6841 157.919 18.884 157.919 20.4673V34.1421C157.919 34.3524 157.888 34.5194 157.826 34.6431C157.776 34.7544 157.708 34.841 157.622 34.9028C157.548 34.9523 157.455 34.9832 157.344 34.9956C157.232 35.008 157.121 35.0142 157.01 35.0142H155.822C155.5 35.0142 155.29 34.9214 155.191 34.7358C155.105 34.5503 155.061 34.3524 155.061 34.1421V20.2817C155.061 19.5767 154.931 19.0386 154.672 18.6675C154.424 18.2964 154.022 18.1108 153.466 18.1108C153.181 18.1108 152.89 18.1912 152.594 18.3521C152.309 18.5005 152.08 18.6613 151.907 18.8345V32.4165C151.907 32.8494 151.87 33.2267 151.796 33.5483C151.721 33.87 151.579 34.1421 151.369 34.3647C151.159 34.575 150.868 34.7358 150.497 34.8472C150.126 34.9585 149.643 35.0142 149.05 35.0142H141.09C140.496 35.0142 140.013 34.9585 139.642 34.8472C139.271 34.7358 138.981 34.575 138.77 34.3647C138.56 34.1545 138.418 33.8885 138.344 33.5669C138.269 33.2453 138.232 32.868 138.232 32.4351V18.5933ZM161.351 10.9673C161.351 10.5343 161.388 10.1571 161.463 9.83545C161.537 9.51383 161.679 9.24788 161.889 9.0376C162.1 8.81494 162.39 8.64795 162.761 8.53662C163.133 8.42529 163.615 8.36963 164.209 8.36963H172.484C173.338 8.36963 174.185 8.42529 175.026 8.53662C175.867 8.63558 176.671 8.80876 177.438 9.05615C178.218 9.30355 178.935 9.62516 179.591 10.021C180.259 10.4168 180.834 10.9116 181.316 11.5054C181.811 12.0868 182.194 12.7733 182.467 13.5649C182.751 14.3442 182.893 15.2472 182.893 16.2739C182.893 17.7954 182.683 19.0819 182.262 20.1333C181.854 21.1724 181.298 22.0321 180.593 22.7124C179.887 23.3927 179.065 23.9123 178.125 24.271C177.197 24.6297 176.22 24.8895 175.193 25.0503V32.0083C175.193 32.2928 175.168 32.6082 175.119 32.9546C175.069 33.3009 174.946 33.6287 174.748 33.938C174.55 34.2349 174.247 34.4884 173.839 34.6987C173.43 34.909 172.868 35.0142 172.15 35.0142H164.209C163.615 35.0142 163.133 34.9585 162.761 34.8472C162.39 34.7358 162.1 34.575 161.889 34.3647C161.679 34.1545 161.537 33.8885 161.463 33.5669C161.388 33.2453 161.351 32.868 161.351 32.4351V10.9673ZM180.277 16.5522C180.277 15.8101 180.178 15.1297 179.98 14.5112C179.782 13.8804 179.479 13.3299 179.071 12.8599C178.663 12.3898 178.137 12.0002 177.494 11.6909C176.851 11.3817 176.084 11.1714 175.193 11.0601V22.5825C176.084 22.4465 176.851 22.1991 177.494 21.8403C178.137 21.4816 178.663 21.0363 179.071 20.5044C179.479 19.9725 179.782 19.3726 179.98 18.7046C180.178 18.0243 180.277 17.3068 180.277 16.5522ZM185.361 18.5933C185.361 18.1727 185.398 17.8016 185.472 17.48C185.547 17.146 185.689 16.8739 185.899 16.6636C186.109 16.4533 186.4 16.2925 186.771 16.1812C187.142 16.0698 187.625 16.0142 188.219 16.0142H196.345C196.914 16.0142 197.372 16.0698 197.719 16.1812C198.065 16.2925 198.337 16.4595 198.535 16.6821C198.733 16.9048 198.863 17.1831 198.925 17.5171C198.999 17.8511 199.036 18.2407 199.036 18.686V20.0591L203.155 16.0513C203.427 15.7915 203.681 15.6616 203.916 15.6616C204.052 15.6616 204.169 15.6925 204.268 15.7544C204.38 15.8039 204.472 15.8657 204.547 15.9399L205.382 16.812C205.567 16.9976 205.66 17.2017 205.66 17.4243C205.66 17.5604 205.617 17.7026 205.53 17.8511C205.456 17.9871 205.332 18.1232 205.159 18.2593L199.036 23.0093V32.3979C199.036 32.8309 199.005 33.2144 198.943 33.5483C198.881 33.87 198.745 34.1421 198.535 34.3647C198.325 34.575 198.022 34.7358 197.626 34.8472C197.23 34.9585 196.692 35.0142 196.011 35.0142H188.219C187.625 35.0142 187.142 34.9585 186.771 34.8472C186.4 34.7358 186.109 34.575 185.899 34.3647C185.689 34.1545 185.547 33.8885 185.472 33.5669C185.398 33.2453 185.361 32.868 185.361 32.4351V18.5933ZM216.719 35.6636C215.791 35.6636 214.863 35.5894 213.935 35.4409C213.008 35.2925 212.117 35.0575 211.263 34.7358C210.422 34.4142 209.637 33.9937 208.907 33.4741C208.177 32.9546 207.54 32.3175 206.996 31.563C206.464 30.8084 206.043 29.9364 205.734 28.9468C205.425 27.9448 205.27 26.8006 205.27 25.5142C205.27 24.2524 205.425 23.1268 205.734 22.1372C206.043 21.1353 206.464 20.257 206.996 19.5024C207.54 18.7479 208.177 18.1108 208.907 17.5913C209.637 17.0594 210.422 16.6326 211.263 16.311C212.117 15.9771 213.008 15.7358 213.935 15.5874C214.863 15.439 215.791 15.3647 216.719 15.3647C217.572 15.3647 218.444 15.4204 219.335 15.5317C220.238 15.6307 221.11 15.8224 221.951 16.1069C222.804 16.3791 223.602 16.7563 224.344 17.2388C225.099 17.7088 225.755 18.3149 226.311 19.0571C226.88 19.7993 227.326 20.6899 227.647 21.729C227.981 22.7557 228.148 23.9679 228.148 25.3657C228.148 26.8006 227.987 28.0562 227.666 29.1323C227.344 30.1961 226.899 31.1115 226.33 31.8784C225.773 32.633 225.124 33.2576 224.382 33.7524C223.639 34.2472 222.842 34.6369 221.988 34.9214C221.147 35.1935 220.275 35.3853 219.372 35.4966C218.469 35.6079 217.584 35.6636 216.719 35.6636ZM222.415 31.2104C222.798 31.2104 223.176 31.13 223.547 30.9692C223.93 30.7961 224.264 30.493 224.549 30.0601C224.845 29.6271 225.08 29.0334 225.254 28.2788C225.439 27.5119 225.532 26.5409 225.532 25.3657C225.532 24.2524 225.439 23.3371 225.254 22.6196C225.08 21.9022 224.845 21.3394 224.549 20.9312C224.252 20.5106 223.918 20.2199 223.547 20.0591C223.176 19.8983 222.798 19.8179 222.415 19.8179C222.118 19.8179 221.784 19.8797 221.413 20.0034C221.054 20.1271 220.714 20.3931 220.392 20.8013C220.083 21.1971 219.823 21.7723 219.613 22.5269C219.403 23.269 219.298 24.2648 219.298 25.5142C219.298 26.7635 219.384 27.7655 219.557 28.52C219.731 29.2746 219.959 29.8498 220.244 30.2456C220.528 30.6414 220.856 30.9012 221.227 31.0249C221.611 31.1486 222.007 31.2104 222.415 31.2104ZM245.348 27.2954V32.4165C245.348 32.8618 245.317 33.2515 245.256 33.5854C245.194 33.9071 245.064 34.173 244.866 34.3833C244.668 34.5936 244.384 34.7544 244.012 34.8657C243.654 34.9647 243.171 35.0142 242.565 35.0142H234.512C233.919 35.0142 233.436 34.9585 233.065 34.8472C232.694 34.7358 232.403 34.575 232.193 34.3647C231.983 34.1545 231.841 33.8885 231.766 33.5669C231.692 33.2453 231.655 32.868 231.655 32.4351V27.2954H230.115C229.855 27.2954 229.725 27.1593 229.725 26.8872V25.4028C229.725 25.1431 229.855 25.0132 230.115 25.0132H231.655V13.8062C231.655 12.4702 231.791 11.3075 232.063 10.3179C232.348 9.32829 232.725 8.48096 233.195 7.77588C233.677 7.05843 234.24 6.47087 234.884 6.01318C235.527 5.5555 236.219 5.19678 236.962 4.93701C237.704 4.66488 238.471 4.47933 239.262 4.38037C240.066 4.28141 240.864 4.23193 241.656 4.23193C242.336 4.23193 243.048 4.27523 243.79 4.36182C244.544 4.4484 245.268 4.56592 245.961 4.71436C246.666 4.85042 247.321 5.01742 247.927 5.21533C248.534 5.40088 249.047 5.59261 249.468 5.79053C249.566 5.84001 249.672 5.91423 249.783 6.01318C249.894 6.11214 249.95 6.28532 249.95 6.53271V7.83154C249.95 7.99235 249.919 8.09131 249.857 8.12842C249.795 8.15316 249.74 8.16553 249.69 8.16553C249.529 8.16553 249.356 8.12842 249.171 8.0542C248.985 7.97998 248.707 7.94287 248.336 7.94287C247.927 7.94287 247.538 8.02946 247.167 8.20264C246.808 8.36344 246.493 8.65413 246.22 9.07471C245.948 9.49528 245.732 10.0643 245.571 10.7817C245.423 11.4992 245.348 12.4022 245.348 13.4907V25.0132H249.059C249.319 25.0132 249.449 25.1431 249.449 25.4028V26.8872C249.449 27.1593 249.319 27.2954 249.059 27.2954H245.348ZM262.048 35.3853C260.427 35.3853 258.974 35.1688 257.687 34.7358C256.401 34.3029 255.312 33.6782 254.422 32.8618C253.531 32.033 252.851 31.0125 252.381 29.8003C251.911 28.5881 251.676 27.2026 251.676 25.644V7.16357C251.676 6.743 251.713 6.37191 251.787 6.05029C251.861 5.71631 252.003 5.44417 252.214 5.23389C252.424 5.0236 252.715 4.86279 253.086 4.75146C253.457 4.64014 253.939 4.58447 254.533 4.58447H262.66C263.192 4.58447 263.631 4.64014 263.977 4.75146C264.324 4.86279 264.596 5.02979 264.794 5.25244C265.004 5.46273 265.146 5.73486 265.22 6.06885C265.307 6.39046 265.35 6.77393 265.35 7.21924V16.0142C266.439 16.2121 267.472 16.5337 268.449 16.979C269.439 17.4119 270.304 18.0119 271.047 18.7788C271.789 19.5334 272.376 20.4673 272.809 21.5806C273.242 22.6938 273.459 24.0298 273.459 25.5884C273.459 26.8872 273.304 28.0314 272.995 29.021C272.698 29.9982 272.277 30.8517 271.733 31.5815C271.201 32.3114 270.57 32.9175 269.841 33.3999C269.123 33.8823 268.338 34.272 267.484 34.5688C266.643 34.8657 265.759 35.076 264.831 35.1997C263.903 35.3234 262.975 35.3853 262.048 35.3853ZM265.35 32.7505C266.315 32.6268 267.144 32.367 267.837 31.9712C268.529 31.563 269.092 31.0435 269.525 30.4126C269.97 29.7817 270.298 29.0581 270.509 28.2417C270.719 27.4253 270.824 26.5409 270.824 25.5884C270.824 24.6483 270.719 23.7638 270.509 22.9351C270.298 22.1063 269.97 21.3765 269.525 20.7456C269.08 20.1147 268.511 19.5952 267.818 19.187C267.138 18.7788 266.315 18.5129 265.35 18.3892V32.7505ZM276.854 8.07275C276.854 7.21924 277.015 6.4152 277.337 5.66064C277.671 4.90609 278.116 4.25049 278.673 3.69385C279.229 3.13721 279.885 2.69808 280.639 2.37646C281.394 2.04248 282.198 1.87549 283.052 1.87549C283.893 1.87549 284.684 2.04248 285.427 2.37646C286.181 2.69808 286.837 3.13721 287.393 3.69385C287.95 4.25049 288.389 4.90609 288.711 5.66064C289.045 6.4152 289.212 7.21924 289.212 8.07275C289.212 8.9139 289.045 9.71175 288.711 10.4663C288.389 11.2085 287.95 11.8579 287.393 12.4146C286.837 12.9712 286.181 13.4165 285.427 13.7505C284.684 14.0721 283.893 14.2329 283.052 14.2329C282.198 14.2329 281.394 14.0721 280.639 13.7505C279.885 13.4165 279.229 12.9712 278.673 12.4146C278.116 11.8579 277.671 11.2085 277.337 10.4663C277.015 9.71175 276.854 8.9139 276.854 8.07275ZM271.956 39.8755C271.956 39.7147 271.981 39.6095 272.03 39.5601C272.08 39.5229 272.141 39.5044 272.216 39.5044C272.29 39.5044 272.37 39.5168 272.457 39.5415C272.531 39.5662 272.63 39.591 272.754 39.6157C272.865 39.6405 273.007 39.6652 273.18 39.6899C273.354 39.7147 273.576 39.7271 273.848 39.7271C275.395 39.7271 276.168 38.7684 276.168 36.8511V18.5933C276.168 18.3088 276.186 18.0181 276.223 17.7212C276.273 17.4119 276.384 17.1336 276.557 16.8862C276.743 16.6265 277.015 16.4162 277.374 16.2554C277.733 16.0946 278.233 16.0142 278.877 16.0142H286.985C287.579 16.0142 288.061 16.0698 288.432 16.1812C288.803 16.2925 289.094 16.4595 289.304 16.6821C289.515 16.8924 289.657 17.1584 289.731 17.48C289.805 17.8016 289.843 18.1789 289.843 18.6118V32.9917C289.843 34.4761 289.676 35.7563 289.342 36.8325C289.02 37.9211 288.581 38.8364 288.024 39.5786C287.48 40.3208 286.843 40.9207 286.113 41.3784C285.396 41.8361 284.641 42.1886 283.849 42.436C283.058 42.6958 282.254 42.8628 281.437 42.937C280.621 43.0236 279.848 43.0669 279.118 43.0669C277.485 43.0669 276.118 42.9556 275.017 42.7329C273.916 42.5226 273.007 42.2257 272.29 41.8423C272.228 41.8175 272.16 41.7619 272.086 41.6753C271.999 41.6011 271.956 41.4588 271.956 41.2485V39.8755Z" fill="#815839"/>
<rect x="17.0095" y="22.0142" width="30.3452" height="17.0457" fill="#815839" stroke="#815839"/>
<path d="M49.7817 37.3733V24.2529C49.7817 21.8475 41.9595 19.8794 32.1817 19.8794C22.404 19.8794 14.5818 21.8475 14.5818 24.2529V37.3733" fill="#815839"/>
<path d="M49.7817 37.3733V24.2529C49.7817 21.8475 41.9595 19.8794 32.1817 19.8794C22.404 19.8794 14.5818 21.8475 14.5818 24.2529V37.3733" stroke="#815839" stroke-width="4.5" stroke-miterlimit="10" stroke-linecap="round" stroke-linejoin="round"/>
<path d="M32.1821 32.6631C22.463 32.6631 14.5822 34.6202 14.5822 37.0365C14.5822 39.4529 22.463 41.41 32.1821 41.41C41.9012 41.41 49.7821 39.4529 49.7821 37.0365C49.7821 34.6202 41.9012 32.6631 32.1821 32.6631ZM2.53878 19.1693V31.9953Z" fill="#815839"/>
<path d="M49.7821 24.9086L61.4591 20.6115C62.2526 20.3195 62.3482 19.2359 61.6181 18.8095L34.1994 2.79586C32.9531 2.06793 31.4112 2.06793 30.1648 2.79586L2.74612 18.8095C2.01609 19.2359 2.11169 20.3195 2.9051 20.6115L14.5822 24.9086M2.53878 19.1693V31.9953M32.1821 32.6631C22.463 32.6631 14.5822 34.6202 14.5822 37.0365C14.5822 39.4529 22.463 41.41 32.1821 41.41C41.9012 41.41 49.7821 39.4529 49.7821 37.0365C49.7821 34.6202 41.9012 32.6631 32.1821 32.6631Z" stroke="#815839" stroke-width="4.5" stroke-miterlimit="10" stroke-linecap="round" stroke-linejoin="round"/>
<path fill-rule="evenodd" clip-rule="evenodd" d="M29.0302 0.853532C30.9777 -0.283859 33.3868 -0.28386 35.3343 0.853531L62.7386 16.8588C65.1191 18.2491 64.7964 21.7854 62.2036 22.7219L52.662 26.1683L51.1333 21.9359L58.1621 19.3972L33.0648 4.73934C32.5195 4.42087 31.845 4.42087 31.2997 4.73934L6.17572 19.4127L13.1962 21.9879L11.6466 26.2127L4.7889 23.6972V34.2459H0.2889V21.0152C-0.342957 19.5979 0.0595747 17.7736 1.61399 16.8657L29.0302 0.853532Z" fill="#815839"/>
</svg>
