<svg width="120" height="78" viewBox="0 0 120 78" fill="none" xmlns="http://www.w3.org/2000/svg">
<g filter="url(#filter0_ddd_429_7450)">
<path d="M18 28C18 16.9543 26.9543 8 38 8H82C93.0457 8 102 16.9543 102 28V30C102 41.0457 93.0457 50 82 50H38C26.9543 50 18 41.0457 18 30V28Z" fill="#DDA15E"/>
<path d="M38 8.5H82C92.7696 8.5 101.5 17.2304 101.5 28V30C101.5 40.7696 92.7696 49.5 82 49.5H38C27.2304 49.5 18.5 40.7696 18.5 30V28C18.5 17.2304 27.2304 8.5 38 8.5Z" stroke="#815839"/>
<path d="M45 30.6667C45.3586 32.3367 46.6631 33.641 48.333 33.9998C46.663 34.3585 45.3586 35.6637 45 37.3337C44.6414 35.6637 43.337 34.3585 41.667 33.9998C43.3369 33.641 44.6414 32.3367 45 30.6667ZM37.5596 20.8337C38.3192 24.3709 41.0829 27.1337 44.6201 27.8933C41.0829 28.6529 38.3192 31.4166 37.5596 34.9539C36.8 31.4166 34.0373 28.6529 30.5 27.8933C34.0371 27.1337 36.7999 24.3708 37.5596 20.8337ZM45.833 20.6667C46.102 21.9192 47.0806 22.8977 48.333 23.1667C47.0806 23.4358 46.102 24.4143 45.833 25.6667C45.564 24.4142 44.5856 23.4357 43.333 23.1667C44.5856 22.8978 45.564 21.9193 45.833 20.6667Z" fill="#815839"/>
<path d="M59.0895 35V23.3636H66.794V25.392H61.5497V28.1648H66.2827V30.1932H61.5497V35H59.0895ZM69.0014 35H66.3651L70.3821 23.3636H73.5526L77.5639 35H74.9276L72.0128 26.0227H71.9219L69.0014 35ZM68.8366 30.4261H75.0639V32.3466H68.8366V30.4261ZM82.8097 30.9545H84.9006L85.9517 32.3068L86.9858 33.5114L88.9347 35.9545H86.6392L85.2983 34.3068L84.6108 33.3295L82.8097 30.9545ZM89.1108 29.1818C89.1108 30.4508 88.8703 31.5303 88.3892 32.4205C87.9119 33.3106 87.2604 33.9905 86.4347 34.4602C85.6127 34.9261 84.6884 35.1591 83.6619 35.1591C82.6278 35.1591 81.6998 34.9242 80.8778 34.4545C80.0559 33.9848 79.4063 33.3049 78.929 32.4148C78.4517 31.5246 78.2131 30.447 78.2131 29.1818C78.2131 27.9129 78.4517 26.8333 78.929 25.9432C79.4063 25.053 80.0559 24.375 80.8778 23.9091C81.6998 23.4394 82.6278 23.2045 83.6619 23.2045C84.6884 23.2045 85.6127 23.4394 86.4347 23.9091C87.2604 24.375 87.9119 25.053 88.3892 25.9432C88.8703 26.8333 89.1108 27.9129 89.1108 29.1818ZM86.6165 29.1818C86.6165 28.3598 86.4934 27.6667 86.2472 27.1023C86.0047 26.5379 85.6619 26.1098 85.2188 25.8182C84.7756 25.5265 84.2566 25.3807 83.6619 25.3807C83.0672 25.3807 82.5483 25.5265 82.1051 25.8182C81.6619 26.1098 81.3172 26.5379 81.071 27.1023C80.8286 27.6667 80.7074 28.3598 80.7074 29.1818C80.7074 30.0038 80.8286 30.697 81.071 31.2614C81.3172 31.8258 81.6619 32.2538 82.1051 32.5455C82.5483 32.8371 83.0672 32.983 83.6619 32.983C84.2566 32.983 84.7756 32.8371 85.2188 32.5455C85.6619 32.2538 86.0047 31.8258 86.2472 31.2614C86.4934 30.697 86.6165 30.0038 86.6165 29.1818Z" fill="#815839"/>
</g>
<defs>
<filter id="filter0_ddd_429_7450" x="0" y="0" width="120" height="78" filterUnits="userSpaceOnUse" color-interpolation-filters="sRGB">
<feFlood flood-opacity="0" result="BackgroundImageFix"/>
<feColorMatrix in="SourceAlpha" type="matrix" values="0 0 0 0 0 0 0 0 0 0 0 0 0 0 0 0 0 0 127 0" result="hardAlpha"/>
<feOffset dy="10"/>
<feGaussianBlur stdDeviation="9"/>
<feColorMatrix type="matrix" values="0 0 0 0 0.228333 0 0 0 0 0.297 0 0 0 0 0.571667 0 0 0 0.1 0"/>
<feBlend mode="normal" in2="BackgroundImageFix" result="effect1_dropShadow_429_7450"/>
<feColorMatrix in="SourceAlpha" type="matrix" values="0 0 0 0 0 0 0 0 0 0 0 0 0 0 0 0 0 0 127 0" result="hardAlpha"/>
<feOffset dy="2"/>
<feGaussianBlur stdDeviation="3"/>
<feColorMatrix type="matrix" values="0 0 0 0 0.170868 0 0 0 0 0.225854 0 0 0 0 0.445799 0 0 0 0.05 0"/>
<feBlend mode="normal" in2="effect1_dropShadow_429_7450" result="effect2_dropShadow_429_7450"/>
<feColorMatrix in="SourceAlpha" type="matrix" values="0 0 0 0 0 0 0 0 0 0 0 0 0 0 0 0 0 0 127 0" result="hardAlpha"/>
<feOffset/>
<feGaussianBlur stdDeviation="0.5"/>
<feColorMatrix type="matrix" values="0 0 0 0 0.170868 0 0 0 0 0.225854 0 0 0 0 0.445799 0 0 0 0.05 0"/>
<feBlend mode="normal" in2="effect2_dropShadow_429_7450" result="effect3_dropShadow_429_7450"/>
<feBlend mode="normal" in="SourceGraphic" in2="effect3_dropShadow_429_7450" result="shape"/>
</filter>
</defs>
</svg>
