<svg width="32" height="32" viewBox="0 0 32 32" fill="none" xmlns="http://www.w3.org/2000/svg">
<path fill-rule="evenodd" clip-rule="evenodd" d="M5.33333 1.66663C4.04467 1.66663 3 2.71129 3 3.99996V7.99996C3 9.28862 4.04467 10.3333 5.33333 10.3333H6.33333V17.6666H5.33333C4.04467 17.6666 3 18.7113 3 20V24C3 25.2886 4.04467 26.3333 5.33333 26.3333H9.33333C10.622 26.3333 11.6667 25.2886 11.6667 24V23H13.3333C13.8856 23 14.3333 22.5522 14.3333 22C14.3333 21.4477 13.8856 21 13.3333 21H11.6667V20C11.6667 18.7113 10.622 17.6666 9.33333 17.6666H8.33333V10.3333H9.33333C10.622 10.3333 11.6667 9.28862 11.6667 7.99996V6.99996H19V7.99996C19 9.28862 20.0447 10.3333 21.3333 10.3333H22.3333V12C22.3333 12.5522 22.781 13 23.3333 13C23.8856 13 24.3333 12.5522 24.3333 12V10.3333H25.3333C26.622 10.3333 27.6667 9.28862 27.6667 7.99996V3.99996C27.6667 2.7113 26.622 1.66663 25.3333 1.66663H21.3333C20.0447 1.66663 19 2.71129 19 3.99996V4.99996H11.6667V3.99996C11.6667 2.7113 10.622 1.66663 9.33333 1.66663H5.33333ZM23.3333 8.33329L25.3333 8.33329C25.5174 8.33329 25.6667 8.18405 25.6667 7.99996V3.99996C25.6667 3.81586 25.5174 3.66663 25.3333 3.66663H21.3333C21.1492 3.66663 21 3.81586 21 3.99996V5.99996V7.99996C21 8.18405 21.1492 8.33329 21.3333 8.33329L23.3333 8.33329ZM9.66667 20V22V24C9.66667 24.1841 9.51743 24.3333 9.33333 24.3333H5.33333C5.14924 24.3333 5 24.1841 5 24V20C5 19.8159 5.14924 19.6666 5.33333 19.6666H7.33333H9.33333C9.51743 19.6666 9.66667 19.8159 9.66667 20ZM9.66667 3.99996V5.99996V7.99996C9.66667 8.18405 9.51743 8.33329 9.33333 8.33329L7.33333 8.33329L5.33333 8.33329C5.14924 8.33329 5 8.18405 5 7.99996V3.99996C5 3.81586 5.14924 3.66663 5.33333 3.66663H9.33333C9.51743 3.66663 9.66667 3.81586 9.66667 3.99996ZM21.3333 22.6666C20.781 22.6666 20.3333 23.1143 20.3333 23.6666C20.3333 24.2189 20.781 24.6666 21.3333 24.6666H24C24.5523 24.6666 25 24.2189 25 23.6666C25 23.1143 24.5523 22.6666 24 22.6666H21.3333ZM20.3333 20.3333C20.3333 19.781 20.781 19.3333 21.3333 19.3333H24C24.5523 19.3333 25 19.781 25 20.3333C25 20.8856 24.5523 21.3333 24 21.3333H21.3333C20.781 21.3333 20.3333 20.8856 20.3333 20.3333ZM20 15C17.975 15 16.3333 16.6416 16.3333 18.6666V25.3333C16.3333 27.3583 17.975 29 20 29H25.3333C27.3584 29 29 27.3583 29 25.3333V18.6666C29 16.6416 27.3584 15 25.3333 15H20ZM18.3333 18.6666C18.3333 17.7462 19.0795 17 20 17H25.3333C26.2538 17 27 17.7462 27 18.6666V25.3333C27 26.2538 26.2538 27 25.3333 27H20C19.0795 27 18.3333 26.2538 18.3333 25.3333V18.6666Z" fill="#343844"/>
</svg>
